/* XPM */
static char * a_xpm[] = {
"9 20 40 1",
" 	c None",
".	c #2A2A2A",
"+	c #2A2E2E",
"@	c #5BC6BA",
"#	c #60D2C5",
"$	c #59C1B4",
"%	c #3D716B",
"&	c #39655F",
"*	c #4FA79E",
"=	c #58BFB3",
"-	c #4CA096",
";	c #2C3434",
">	c #5DCBBF",
",	c #60D1C4",
"'	c #3B6E67",
")	c #5CC7BB",
"!	c #407E76",
"~	c #56BAAF",
"{	c #59C0B5",
"]	c #3C736C",
"^	c #52AFA5",
"/	c #48938B",
"(	c #4B9D93",
"_	c #4FA89D",
":	c #2F443F",
"<	c #5FCFC2",
"[	c #335852",
"}	c #386762",
"|	c #5DCCBF",
"1	c #438982",
"2	c #52AEA3",
"3	c #407F77",
"4	c #55B7AC",
"5	c #53B0A6",
"6	c #386661",
"7	c #3C716B",
"8	c #2B3131",
"9	c #5DCABE",
"0	c #499991",
"a	c #4DA298",
"         ",
"         ",
"         ",
".........",
".........",
"..+@#$...",
"..%###&..",
"..*#=#-..",
".;>,'#)+.",
".!#~.{#].",
".^#/.(#_.",
":<#[.}#|;",
"1#<222,#3",
"4#######5",
",#6...7#<",
"#@....89#",
"#0.....a#",
".........",
"         ",
"         "};
