/* XPM */
static char * colon_xpm[] = {
"4 20 14 1",
" 	c None",
".	c #2A2A2A",
"+	c #3F7E76",
"@	c #5DCBBF",
"#	c #4FA79D",
"$	c #53B2A7",
"%	c #60D2C5",
"&	c #407E76",
"*	c #5ECCC0",
"=	c #3F7974",
"-	c #5CC8BC",
";	c #4EA49B",
">	c #418078",
",	c #50A89E",
"    ",
"    ",
"    ",
"....",
"....",
"....",
"+@#.",
"$%%.",
"&*#.",
"....",
"....",
"....",
"....",
"=-;.",
"$%%.",
">*,.",
"....",
"....",
"    ",
"    "};
