/* XPM */
static char * dot_xpm[] = {
"4 20 10 1",
" 	c None",
".	c #2A2A2A",
"+	c #43867F",
"@	c #5DCABD",
"#	c #4C9E93",
"$	c #57BBAF",
"%	c #60D2C5",
"&	c #458D84",
"*	c #5ECDC1",
"=	c #4DA198",
"    ",
"    ",
"    ",
"....",
"....",
"....",
"....",
"....",
"....",
"....",
"....",
"....",
"....",
"+@#.",
"$%%.",
"&*=.",
"....",
"....",
"    ",
"    "};
