/* XPM */
static char * m_xpm[] = {
"14 20 35 1",
" 	c None",
".	c #2A2A2A",
"+	c #5BC6BA",
"@	c #5ECDC0",
"#	c #3E7A73",
"$	c #58BCB1",
"%	c #5FCFC2",
"&	c #345750",
"*	c #3F7E76",
"=	c #59BFB4",
"-	c #5AC2B7",
";	c #43887F",
">	c #60D2C5",
",	c #5AC2B6",
"'	c #5BC5B9",
")	c #58BFB3",
"!	c #5FD0C3",
"~	c #5AC4B8",
"{	c #58C2B6",
"]	c #3B6F68",
"^	c #4DA298",
"/	c #2C3434",
"(	c #57B8AE",
"_	c #2A2E2E",
":	c #56BAAF",
"<	c #4EA299",
"[	c #448980",
"}	c #55B7AC",
"|	c #4B9F97",
"1	c #4FA49B",
"2	c #53B0A6",
"3	c #55B8AB",
"4	c #4C9F95",
"5	c #4EA59A",
"6	c #53B2A7",
"              ",
"              ",
"              ",
"..............",
"..............",
"..............",
"..............",
"..............",
".+@#$%$&*=%-;.",
".+>>,'>)!~{>>]",
".+>^./+>(_.:><",
".+>[..}>|..1>2",
".+>[..3>4..5>6",
".+>[..3>4..5>6",
".+>[..3>4..5>6",
".+>[..3>4..5>6",
".+>[..3>4..5>6",
"..............",
"              ",
"              "};
