/* XPM */
static char * n0_xpm[] = {
"9 20 37 1",
" 	c None",
".	c #2A2A2A",
"+	c #3F7E76",
"@	c #58BDB2",
"#	c #5FCFC2",
"$	c #5CCCBE",
"%	c #51ACA2",
"&	c #32534D",
"*	c #42847D",
"=	c #60D2C5",
"-	c #59C0B5",
";	c #5DCABE",
">	c #5BC6B9",
",	c #2F4844",
"'	c #49968D",
")	c #2C3A3A",
"!	c #4DA49A",
"~	c #2D3C37",
"{	c #448B82",
"]	c #57BEB3",
"^	c #36635E",
"/	c #335852",
"(	c #55B8AB",
"_	c #314C48",
":	c #3B6C65",
"<	c #5FCEC2",
"[	c #2D3A35",
"}	c #458981",
"|	c #48968D",
"1	c #59C0B4",
"2	c #43867D",
"3	c #5DCABD",
"4	c #5BC6BA",
"5	c #314A46",
"6	c #407E77",
"7	c #5DCBBF",
"8	c #33524E",
"         ",
"         ",
"         ",
".........",
".........",
".+@#$%&..",
"*==-;=>,.",
";='.)-=!.",
"=#~..{=;.",
"=]...^==/",
"=(..._==:",
"=(..._==:",
"=]...^==/",
"=<[..}=;.",
";=|.)1=!.",
"2==-3=45.",
".6@#7%8..",
".........",
"         ",
"         "};
