/* XPM */
static char * n1_xpm[] = {
"9 20 23 1",
" 	c None",
".	c #2A2A2A",
"+	c #2B2E2E",
"@	c #4FA79E",
"#	c #60D2C5",
"$	c #59C0B5",
"%	c #2F413D",
"&	c #55B5AA",
"*	c #32534D",
"=	c #59C0B4",
"-	c #499991",
";	c #57BEB3",
">	c #4B9E93",
",	c #2D3131",
"'	c #448A81",
")	c #2E3D3D",
"!	c #489288",
"~	c #4A9C91",
"{	c #50A9A1",
"]	c #58BCB1",
"^	c #5DCCBF",
"/	c #4EA499",
"(	c #5DCBBF",
"         ",
"         ",
"         ",
".........",
".........",
"..+@#$...",
".%&##$...",
"*=###$...",
"-#;>#$...",
",')!#$...",
"...!#$...",
"...!#$...",
"...!#$...",
"...!#$...",
"...!#$...",
".~{]#^{/.",
".$#####(.",
".........",
"         ",
"         "};
