/* XPM */
static char * n2_xpm[] = {
"9 20 42 1",
" 	c None",
".	c #2A2A2A",
"+	c #3C746D",
"@	c #56B8AD",
"#	c #5DCCBF",
"$	c #5CCCBE",
"%	c #55B6AB",
"&	c #396A63",
"*	c #3F7B74",
"=	c #60D1C4",
"-	c #60D2C5",
";	c #59BFB4",
">	c #5BC6BB",
",	c #5FCFC2",
"'	c #37615C",
")	c #5AC3B7",
"!	c #49988F",
"~	c #2B3131",
"{	c #56BAAF",
"]	c #52AEA3",
"^	c #51AFA4",
"/	c #53B1A6",
"(	c #2D3C37",
"_	c #4DA399",
":	c #56BCB0",
"<	c #57B8AE",
"[	c #50ABA1",
"}	c #3E7A71",
"|	c #3A706A",
"1	c #39655F",
"2	c #4DA49A",
"3	c #38655C",
"4	c #5DCABE",
"5	c #53B0A6",
"6	c #54B3A8",
"7	c #2D3131",
"8	c #55B8AB",
"9	c #2C3737",
"0	c #5FD0C3",
"a	c #53B2A7",
"b	c #55B7AC",
"c	c #4EA69D",
"         ",
"         ",
"         ",
".........",
".........",
".+@#$%&..",
"*=-;>-,'.",
")-!.~{-].",
"^/(.._-:.",
".....<-[.",
"....}--|.",
"...1#-2..",
"..34-5~..",
".34-67...",
"34-89....",
"4-0ab@@c.",
"-------0.",
".........",
"         ",
"         "};
