/* XPM */
static char * n3_xpm[] = {
"9 20 49 1",
" 	c None",
".	c #2A2A2A",
"+	c #37635E",
"@	c #53B1A6",
"#	c #5CC9BC",
"$	c #5ECDC1",
"%	c #58BFB2",
"&	c #42857C",
"*	c #396961",
"=	c #5ECDC0",
"-	c #60D2C5",
";	c #5AC5B8",
">	c #59BFB4",
",	c #43867F",
"'	c #53B1A8",
")	c #50A9A1",
"!	c #2A2E2E",
"~	c #4CA197",
"{	c #58BFB4",
"]	c #448D83",
"^	c #4C9F95",
"/	c #2E4641",
"(	c #43887F",
"_	c #2B2E2E",
":	c #38655C",
"<	c #58BCB1",
"[	c #48978E",
"}	c #59C0B5",
"|	c #4CA096",
"1	c #5BC6B9",
"2	c #60D1C4",
"3	c #448B82",
"4	c #48958C",
"5	c #5ECCBF",
"6	c #438780",
"7	c #458D84",
"8	c #386661",
"9	c #304642",
"0	c #5FCFC2",
"a	c #4B9F97",
"b	c #5CC8BC",
"c	c #499890",
"d	c #59C0B4",
"e	c #5AC3B7",
"f	c #407F77",
"g	c #58BFB3",
"h	c #5CCCBE",
"i	c #55B7AC",
"j	c #3D766D",
"         ",
"         ",
"         ",
".........",
".........",
".+@#$%&..",
"*=-;>--,.",
"'-)!.~-{.",
"]^/..(->.",
"..._:<-[.",
"...}--|..",
"...)1-23.",
".....4-5!",
"67...8--9",
"0-(..a-b.",
"c--de--f.",
".]g$hij..",
".........",
"         ",
"         "};
