/* XPM */
static char * n4_xpm[] = {
"9 20 27 1",
" 	c None",
".	c #2A2A2A",
"+	c #4FA89D",
"@	c #60D2C5",
"#	c #5DCBBF",
"$	c #43857E",
"%	c #365F59",
"&	c #5ECDC1",
"*	c #5ECDC0",
"=	c #60D1C4",
"-	c #2C3A3A",
";	c #59C1B5",
">	c #43867F",
",	c #51ACA1",
"'	c #50A99E",
")	c #2D3131",
"!	c #458B83",
"~	c #2D3C37",
"{	c #5FCFC2",
"]	c #5ECEC2",
"^	c #37615C",
"/	c #5BC6BA",
"(	c #53B2A7",
"_	c #53B1A8",
":	c #5FD0C3",
"<	c #3B736C",
"[	c #3F7D75",
"         ",
"         ",
"         ",
".........",
".........",
"....+@#..",
"...$@@#..",
"..%&*=#..",
".-;@>@#..",
".,@')@#..",
"!@;~)@#..",
"{]^.)@#..",
"@/((_@:(<",
"@@@@@@@@[",
"....)@#..",
"....)@#..",
"....)@#..",
".........",
"         ",
"         "};
