/* XPM */
static char * n5_xpm[] = {
"9 20 44 1",
" 	c None",
".	c #2A2A2A",
"+	c #5BC6BB",
"@	c #60D2C5",
"#	c #3C746D",
"$	c #2E3F3B",
"%	c #5ECCBF",
"&	c #56B8AD",
"*	c #55B8AC",
"=	c #51ACA2",
"-	c #2F443F",
";	c #3A6D68",
">	c #51AFA4",
",	c #458D84",
"'	c #4B9D93",
")	c #4DA399",
"!	c #56BCB0",
"~	c #54B5AA",
"{	c #53B1A6",
"]	c #448B82",
"^	c #2A2E2E",
"/	c #55B6AB",
"(	c #55B7AC",
"_	c #2B3131",
":	c #2E3D3D",
"<	c #3B736C",
"[	c #314E4A",
"}	c #41817A",
"|	c #5FD0C3",
"1	c #438982",
"2	c #53B0A6",
"3	c #4FA79E",
"4	c #4FA89D",
"5	c #469086",
"6	c #3E7C74",
"7	c #37615C",
"8	c #5FCEC2",
"9	c #407E76",
"0	c #5BC5B9",
"a	c #58BFB2",
"b	c #53B2A7",
"c	c #5ECCC0",
"d	c #59C0B5",
"e	c #458981",
"         ",
"         ",
"         ",
".........",
".........",
".+@@@@@#.",
"$@%&&*=-.",
";@>......",
",@'......",
")@!~{]^..",
"/@@@@@(_.",
":<[:}|@1.",
".....2@3.",
".....{@4.",
"56..78@9.",
"@@0a|@b..",
"6(c|de^..",
".........",
"         ",
"         "};
