/* XPM */
static char * n6_xpm[] = {
"9 20 50 1",
" 	c None",
".	c #2A2A2A",
"+	c #386661",
"@	c #5AC5B9",
"#	c #60D2C5",
"$	c #56BAAF",
"%	c #2D3131",
"&	c #2D3A35",
"*	c #58C2B6",
"=	c #5CC9BC",
"-	c #32524E",
";	c #4DA298",
">	c #60D1C4",
",	c #3D756E",
"'	c #3D716B",
")	c #49988F",
"!	c #2E3D3D",
"~	c #5BC6B9",
"{	c #55B8AB",
"]	c #37605B",
"^	c #2C3A3A",
"/	c #4C9F95",
"(	c #5ED1C4",
"_	c #4FA79E",
":	c #5ECDC0",
"<	c #5FCFC2",
"[	c #52B0A4",
"}	c #56B8AD",
"|	c #49988E",
"1	c #3E7C74",
"2	c #4CA197",
"3	c #2E4340",
"4	c #5ECDC1",
"5	c #3B6C65",
"6	c #36605C",
"7	c #2B3131",
"8	c #3E7670",
"9	c #32504A",
"0	c #5CCCBE",
"a	c #47948A",
"b	c #2F443F",
"c	c #58BFB3",
"d	c #458B83",
"e	c #5CC8BC",
"f	c #5FCEC2",
"g	c #37635F",
"h	c #42837B",
"i	c #58BEB2",
"j	c #53B1A8",
"k	c #345855",
"         ",
"         ",
"         ",
".........",
"...+@#$%.",
"..&*#=-..",
"..;#>,...",
".'>#)....",
"!~#{]^...",
"/##(#>_!.",
":#<[}##|.",
"##1..2#>3",
"#4...5##6",
"#<7..8##9",
"0#a.b$#c.",
"d##ef#4g.",
".hi<:jk..",
".........",
"         ",
"         "};
