/* XPM */
static char * n7_xpm[] = {
"9 20 29 1",
" 	c None",
".	c #2A2A2A",
"+	c #60D2C5",
"@	c #355A54",
"#	c #55B8AB",
"$	c #56B8AD",
"%	c #58BFB4",
"&	c #5ED1C4",
"*	c #2E3F3B",
"=	c #53B2A7",
"-	c #51ADA3",
";	c #386964",
">	c #38655C",
",	c #53B3A8",
"'	c #53B1A8",
")	c #386762",
"!	c #396B64",
"~	c #52B1A6",
"{	c #55B6AA",
"]	c #3D716B",
"^	c #52B0A4",
"/	c #56BAAF",
"(	c #37605B",
"_	c #60D1C4",
":	c #3E7A73",
"<	c #57BEB3",
"[	c #365F59",
"}	c #5CCCBE",
"|	c #3C736C",
"         ",
"         ",
"         ",
".........",
".........",
"++++++++@",
"#$$$$%+&*",
".....=+-.",
"....;++>.",
"....,+'..",
"...)++!..",
"...~+{...",
"..>++]...",
"..^+/....",
".(_+:....",
".-+<.....",
"[_}|.....",
".........",
"         ",
"         "};
