/* XPM */
static char * n8_xpm[] = {
"9 20 58 1",
" 	c None",
".	c #2A2A2A",
"+	c #407E76",
"@	c #58BEB2",
"#	c #5FD0C3",
"$	c #5DCCBF",
"%	c #52ADA1",
"&	c #345750",
"*	c #448980",
"=	c #60D2C5",
"-	c #59C0B4",
";	c #5CC9BC",
">	c #5CC8BC",
",	c #314C48",
"'	c #4B9F97",
")	c #2E3D3D",
"!	c #5BC5B9",
"~	c #60D1C4",
"{	c #3E7A73",
"]	c #52AFA5",
"^	c #51ADA3",
"/	c #59C0B5",
"(	c #4B9E94",
"_	c #5BC6B9",
":	c #49958B",
"<	c #3B6F68",
"[	c #5DCABD",
"}	c #55B6AA",
"|	c #2C3A3A",
"1	c #3C716B",
"2	c #5AC2B6",
"3	c #2F413D",
"4	c #5ECDC1",
"5	c #4EA89D",
"6	c #304444",
"7	c #37615C",
"8	c #5AC4B8",
"9	c #33504C",
"0	c #48968D",
"a	c #5FCFC2",
"b	c #2A2E2E",
"c	c #2E3F3B",
"d	c #478F87",
"e	c #2D3A35",
"f	c #468C84",
"g	c #2C3434",
"h	c #56BAAF",
"i	c #58C2B6",
"j	c #4FAB9F",
"k	c #58BFB3",
"l	c #5CC7BB",
"m	c #3F7D75",
"n	c #2B2E2E",
"o	c #469086",
"p	c #5AC2B7",
"q	c #5ECDC0",
"r	c #55B6AB",
"s	c #3A6A65",
"         ",
"         ",
"         ",
".........",
".+@#$%&..",
"*==-;=>,.",
">='.)!='.",
"~={..]=^.",
"/=(.)_=:.",
"<[=-;=}|.",
"12====%3.",
"4=5678=%.",
"==9..0=ab",
"==c..d==e",
"==f.gh=i.",
"j==kl=~m.",
"nop#qrs..",
".........",
"         ",
"         "};
