/* XPM */
static char * n9_xpm[] = {
"9 20 42 1",
" 	c None",
".	c #2A2A2A",
"+	c #345A54",
"@	c #53B1A6",
"#	c #5ECCC0",
"$	c #5FD0C3",
"%	c #58BFB3",
"&	c #407F77",
"*	c #37605B",
"=	c #5DCEC1",
"-	c #60D2C5",
";	c #5BC6BA",
">	c #57BEB3",
",	c #60D1C4",
"'	c #48968D",
")	c #55B7AC",
"!	c #51ACA1",
"~	c #2B3131",
"{	c #3F7D75",
"]	c #5ECDC0",
"^	c #5FCEC2",
"/	c #5BC6BB",
"(	c #4FA49B",
"_	c #3E7A71",
":	c #479389",
"<	c #5AC4B8",
"[	c #58BEB2",
"}	c #489288",
"|	c #50A99E",
"1	c #4CA096",
"2	c #5DCCBF",
"3	c #314E4A",
"4	c #41827B",
"5	c #365C56",
"6	c #50ABA1",
"7	c #2D3C37",
"8	c #59BFB4",
"9	c #5BC5B9",
"0	c #2F413D",
"a	c #50ABA0",
"b	c #5BC8BB",
"c	c #3B6C65",
"         ",
"         ",
"         ",
".........",
".........",
".+@#$%&..",
"*=-;>,-'.",
")-!~.{-].",
"]-&...^-.",
"/-(.._--.",
":--<[,-^.",
".}<^>$-|.",
"....1-23.",
"...&--4..",
"..5#-6...",
".78-90...",
".a-bc....",
".........",
"         ",
"         "};
