/* XPM */
static char * p_xpm[] = {
"9 20 27 1",
" 	c None",
".	c #2A2A2A",
"+	c #60D1C4",
"@	c #60D2C5",
"#	c #5ECDC1",
"$	c #56BAAF",
"%	c #41817A",
"&	c #59BFB4",
"*	c #55B7AC",
"=	c #5AC5B9",
"-	c #458E86",
";	c #42837B",
">	c #2A2E2E",
",	c #50A9A1",
"'	c #5CC7BB",
")	c #3D766D",
"!	c #2E4641",
"~	c #2E3F3B",
"{	c #365D5B",
"]	c #58BFB4",
"^	c #57BCB0",
"/	c #5CCCBE",
"(	c #396961",
"_	c #55B6AA",
":	c #53B1A6",
"<	c #49988F",
"[	c #314C48",
"         ",
"         ",
"         ",
".........",
".........",
"+@@@#$%..",
"+@&*=@@-.",
"+@;.>,@'.",
"+@;..)@@!",
"+@;..%@@~",
"+@;>{]@^.",
"+@@@@@/(.",
"+@&_:<[..",
"+@;......",
"+@;......",
"+@;......",
"+@;......",
".........",
"         ",
"         "};
