/* XPM */
static char * percent_xpm[] = {
"11 20 66 1",
" 	c None",
".	c #2A2A2A",
"+	c #4EA89D",
"@	c #5ECDC0",
"#	c #57BCB0",
"$	c #365C56",
"%	c #418078",
"&	c #5CC8BC",
"*	c #314E4A",
"=	c #60D2C5",
"-	c #50ABA0",
";	c #5CC9BC",
">	c #55B5AA",
",	c #304444",
"'	c #489288",
")	c #5AC5B8",
"!	c #4B9C93",
"~	c #5ECCBF",
"{	c #4FA49B",
"]	c #59C0B4",
"^	c #2B2E2E",
"/	c #5DCCBF",
"(	c #324A47",
"_	c #51AFA4",
":	c #386762",
"<	c #5FD0C3",
"[	c #3A706A",
"}	c #5FCFC2",
"|	c #47948A",
"1	c #57BBAF",
"2	c #50ABA1",
"3	c #37635E",
"4	c #4A9A8F",
"5	c #3F7E76",
"6	c #448B82",
"7	c #314C48",
"8	c #2D3131",
"9	c #304642",
"0	c #5DCABE",
"a	c #479088",
"b	c #3C736C",
"c	c #5CC7BB",
"d	c #51ADA3",
"e	c #4FA69B",
"f	c #58BFB3",
"g	c #2B3131",
"h	c #5AC4B8",
"i	c #55B6AB",
"j	c #43887F",
"k	c #60D1C4",
"l	c #386964",
"m	c #5ED1C4",
"n	c #3B6E67",
"o	c #5DCABD",
"p	c #4C9F95",
"q	c #2A2E2E",
"r	c #57BDB1",
"s	c #50A9A1",
"t	c #5AC2B6",
"u	c #5AC5B9",
"v	c #51ACA2",
"w	c #41827B",
"x	c #448D83",
"y	c #3A6E67",
"z	c #5AC2B7",
"A	c #4DA399",
"           ",
"           ",
"...........",
"...........",
"+@#$..%&*..",
"=-;>.,;'...",
").!~.{]^...",
"/(_):<[....",
"}==|12.....",
"3456~7.8...",
"..90abc<d^.",
"..efghijkj.",
".lmn^='.op.",
"qrs..tuv=w.",
"x)(..yz@A..",
"...........",
"...........",
"...........",
"           ",
"           "};
