/* XPM */
static char * slash_xpm[] = {
"8 20 31 1",
" 	c None",
".	c #2A2A2A",
"+	c #3E7C74",
"@	c #5ECDC1",
"#	c #3D756E",
"$	c #59C1B4",
"%	c #58BFB3",
"&	c #3F7872",
"*	c #60D2C5",
"=	c #448980",
"-	c #55B6AB",
";	c #5CC9BC",
">	c #2C3434",
",	c #36635E",
"'	c #4A998F",
")	c #50A99F",
"!	c #5FCFC2",
"~	c #304C48",
"{	c #324A47",
"]	c #4FA89D",
"^	c #4A9C91",
"/	c #37615C",
"(	c #2D3A35",
"_	c #5DCABD",
":	c #55B5AA",
"<	c #458D84",
"[	c #58C2B6",
"}	c #3E7A73",
"|	c #55B8AB",
"1	c #5CC8BC",
"2	c #499890",
"        ",
"        ",
"........",
"........",
".....+@#",
".....$%.",
"....&*=.",
"....-;>.",
"...,*'..",
"...)!~..",
"..{!]...",
"..^*/...",
".(_:....",
".<*&....",
".[[.....",
"}*<.....",
"|1(.....",
"2,......",
"........",
"        "};
