/* XPM */
static char * closeO_xpm[] = {
"26 58 67 1",
" 	c None",
".	c #282828",
"+	c #92413F",
"@	c #CE5753",
"#	c #ED625E",
"$	c #FA6762",
"%	c #ED635E",
"&	c #CD5652",
"*	c #91413F",
"=	c #723836",
"-	c #E25D5A",
";	c #FF6964",
">	c #E25E5A",
",	c #703737",
"'	c #8B403D",
")	c #F86661",
"!	c #8A3F3D",
"~	c #F76661",
"{	c #6F3735",
"]	c #E15D5A",
"^	c #F1645E",
"/	c #5A3230",
"(	c #E15E59",
"_	c #90423E",
":	c #E35E59",
"<	c #5B3232",
"[	c #E05D59",
"}	c #E35E5A",
"|	c #F96763",
"1	c #EC625D",
"2	c #CC5753",
"3	c #8F403E",
"4	c #6B3734",
"5	c #F66661",
"6	c #813231",
"7	c #B53D3A",
"8	c #D14240",
"9	c #DC4542",
"0	c #D0423F",
"a	c #B43C39",
"b	c #803231",
"c	c #632D2D",
"d	c #C8403E",
"e	c #E04643",
"f	c #C6403D",
"g	c #622D2D",
"h	c #7A3130",
"i	c #D94443",
"j	c #7B3130",
"k	c #D94441",
"l	c #642E2C",
"m	c #C5403D",
"n	c #D34340",
"o	c #4F2C2C",
"p	c #C63F3D",
"q	c #7F3131",
"r	c #B53C3A",
"s	c #C8413E",
"t	c #502C2C",
"u	c #C6403E",
"v	c #B33C3A",
"w	c #DB4542",
"x	c #D04240",
"y	c #B43C3A",
"z	c #7E3230",
"A	c #5F2D2D",
"B	c #D84541",
"..........................",
"..........................",
"..........................",
"..........................",
"..........................",
".........+@#$$%&*.........",
".......=-;;;;;;;;>,.......",
"......');;;;;;;;;;)!......",
".....=);;;;;;;;;;;;~{.....",
".....];;;^;;;;;;^;;;-.....",
"....+;;;^/(;;;;(/^;;;_....",
"....@;;;;:<[;;}<[;;;;&....",
"....#;;;;;:<[}<[;;;;;%....",
"....$;;;;;;(//(;;;;;;$....",
"....$;;;;;;(//(;;;;;;|....",
"....#;;;;;}<[:<[;;;;;1....",
"....@;;;;}<[;;:<[;;;;2....",
"....*;;;^/(;;;;(/^;;;3....",
".....[;;;^;;;;;;^;;;>.....",
".....45;;;;;;;;;;;;~{.....",
"......!~;;;;;;;;;;~!......",
".......,(;;;;;;;;]{.......",
"........._&1$$1&3.........",
"..........................",
"..........................",
"..........................",
"..........................",
"..........................",
"..........................",
"..........................",
"..........................",
"..........................",
"..........................",
"..........................",
".........678990ab.........",
".......cdeeeeeeeefg.......",
"......hieeeeeeeeeeij......",
".....cieeeeeeeeeeeekl.....",
".....meeeneeeeeeneeed.....",
"....6eeenopeeeeponeeeq....",
"....reeeestmeeutmeeeev....",
"....8eeeeestmutmeeeee0....",
"....weeeeeepoopeeeeeew....",
"....weeeeeepoopeeeeeew....",
"....8eeeeeutmstmeeeeex....",
"....7eeeeutmeestmeeeey....",
"....beeenopeeeeponeeez....",
".....meeeneeeeeeneeef.....",
".....ABeeeeeeeeeeeekl.....",
"......jkeeeeeeeeeekj......",
".......gpeeeeeeeeml.......",
".........qvxwwxvz.........",
"..........................",
"..........................",
"..........................",
"..........................",
"..........................",
".........................."};
