/* XPM */
static char * closeA_xpm[] = {
"26 58 64 1",
" 	c None",
".	c #282828",
"+	c #7F7F7F",
"@	c #B3B3B3",
"#	c #CFCFCF",
"$	c #DADADA",
"%	c #CECECE",
"&	c #7E7E7E",
"*	c #636363",
"=	c #C5C5C5",
"-	c #DEDEDE",
";	c #626262",
">	c #7A7A7A",
",	c #D8D8D8",
"'	c #797979",
")	c #D7D7D7",
"!	c #616161",
"~	c #C3C3C3",
"{	c #D2D2D2",
"]	c #4F4F4F",
"^	c #C4C4C4",
"/	c #7D7D7D",
"(	c #B4B4B4",
"_	c #C6C6C6",
":	c #505050",
"<	c #B2B2B2",
"[	c #D9D9D9",
"}	c #B1B1B1",
"|	c #7C7C7C",
"1	c #5F5F5F",
"2	c #D6D6D6",
"3	c #813231",
"4	c #B53D3A",
"5	c #D14240",
"6	c #DC4542",
"7	c #D0423F",
"8	c #B43C39",
"9	c #803231",
"0	c #632D2D",
"a	c #C8403E",
"b	c #E04643",
"c	c #C6403D",
"d	c #622D2D",
"e	c #7A3130",
"f	c #D94443",
"g	c #7B3130",
"h	c #D94441",
"i	c #642E2C",
"j	c #C5403D",
"k	c #D34340",
"l	c #4F2C2C",
"m	c #C63F3D",
"n	c #7F3131",
"o	c #B53C3A",
"p	c #C8413E",
"q	c #502C2C",
"r	c #C6403E",
"s	c #B33C3A",
"t	c #DB4542",
"u	c #D04240",
"v	c #B43C3A",
"w	c #7E3230",
"x	c #5F2D2D",
"y	c #D84541",
"..........................",
"..........................",
"..........................",
"..........................",
"..........................",
".........+@#$$%@&.........",
".......*=--------=;.......",
"......>,----------,'......",
".....*,------------)!.....",
".....~---{------{---=.....",
"....+---{]^----^]{---/....",
"....(----_:^--=:^----<....",
"....#-----_:^=:^-----%....",
"....[------^]]^------[....",
"....[------^]]^------[....",
"....#-----=:^_:^-----%....",
"....@----=:^--_:^----}....",
"....&---{]^----^]{---|....",
".....^---{------{---=.....",
".....12------------)!.....",
"......')----------)'......",
".......;^--------~!.......",
"........./<%[[%<|.........",
"..........................",
"..........................",
"..........................",
"..........................",
"..........................",
"..........................",
"..........................",
"..........................",
"..........................",
"..........................",
"..........................",
".........34566789.........",
".......0abbbbbbbbcd.......",
"......efbbbbbbbbbbfg......",
".....0fbbbbbbbbbbbbhi.....",
".....jbbbkbbbbbbkbbba.....",
"....3bbbklmbbbbmlkbbbn....",
"....obbbbpqjbbrqjbbbbs....",
"....5bbbbbpqjrqjbbbbb7....",
"....tbbbbbbmllmbbbbbbt....",
"....tbbbbbbmllmbbbbbbt....",
"....5bbbbbrqjpqjbbbbbu....",
"....4bbbbrqjbbpqjbbbbv....",
"....9bbbklmbbbbmlkbbbw....",
".....jbbbkbbbbbbkbbbc.....",
".....xybbbbbbbbbbbbhi.....",
"......ghbbbbbbbbbbhg......",
".......dmbbbbbbbbji.......",
".........nsuttusw.........",
"..........................",
"..........................",
"..........................",
"..........................",
"..........................",
".........................."};
