/* XPM */
static char * closeI_xpm[] = {
"26 58 51 1",
" 	c None",
".	c #303030",
"+	c #444444",
"@	c #585858",
"#	c #636363",
"$	c #676767",
"%	c #646464",
"&	c #575757",
"*	c #454545",
"=	c #3D3D3D",
"-	c #5E5E5E",
";	c #696969",
">	c #5F5F5F",
",	c #3C3C3C",
"'	c #666666",
")	c #434343",
"!	c #383838",
"~	c #464646",
"{	c #626262",
"]	c #833736",
"^	c #B53F3C",
"/	c #D14341",
"(	c #DC4542",
"_	c #D04340",
":	c #B53E3C",
"<	c #823736",
"[	c #663333",
"}	c #C8413F",
"|	c #E04643",
"1	c #C7413E",
"2	c #653434",
"3	c #7C3635",
"4	c #DA4543",
"5	c #7D3735",
"6	c #D94542",
"7	c #663433",
"8	c #C6413F",
"9	c #D44441",
"0	c #533333",
"a	c #C6403F",
"b	c #813636",
"c	c #B63F3C",
"d	c #C8423F",
"e	c #543232",
"f	c #C5413F",
"g	c #C7413F",
"h	c #B43E3C",
"i	c #DB4542",
"j	c #803735",
"k	c #623333",
"l	c #D84642",
"..........................",
"..........................",
"..........................",
"..........................",
"..........................",
".........+@#$$%&*.........",
".......=-;;;;;;;;>,.......",
"......+';;;;;;;;;;')......",
".....=';;;;;;;;;;;;',.....",
".....-;;;%;;;;;;%;;;-.....",
"....+;;;%!>;;;;>!%;;;~....",
"....@;;;;>!-;;>!-;;;;@....",
"....#;;;;;>!->!-;;;;;%....",
"....$;;;;;;>!!>;;;;;;$....",
"....$;;;;;;>!!>;;;;;;$....",
"....#;;;;;>!->!-;;;;;{....",
"....@;;;;>!-;;>!-;;;;@....",
"....*;;;%!>;;;;>!%;;;+....",
".....-;;;%;;;;;;%;;;>.....",
".....,';;;;;;;;;;;;',.....",
"......)';;;;;;;;;;')......",
".......,>;;;;;;;;-,.......",
".........~@{$${@+.........",
"..........................",
"..........................",
"..........................",
"..........................",
"..........................",
"..........................",
"..........................",
"..........................",
"..........................",
"..........................",
"..........................",
".........]^/((_:<.........",
".......[}||||||||12.......",
"......34||||||||||45......",
".....[4||||||||||||67.....",
".....8|||9||||||9|||}.....",
"....]|||90a||||a09|||b....",
"....c||||def||gef||||h....",
"..../|||||defgef|||||_....",
"....i||||||a00a||||||i....",
"....i||||||a00a||||||i....",
"..../|||||gefdef|||||_....",
"....^||||gef||def||||:....",
"....<|||90a||||a09|||j....",
".....f|||9||||||9|||1.....",
".....kl||||||||||||67.....",
"......56||||||||||65......",
".......2a||||||||87.......",
".........bh_ii_hj.........",
"..........................",
"..........................",
"..........................",
"..........................",
"..........................",
".........................."};
