/* XPM */
static char * dframeATL_xpm[] = {
"5 34 3 1",
" 	c None",
".	c #404040",
"+	c #282828",
"     ",
"     ",
"     ",
"     ",
"   ..",
"  .++",
" .+++",
" .+++",
".++++",
".++++",
".++++",
".++++",
".++++",
".++++",
".++++",
".++++",
".++++",
".++++",
".++++",
".++++",
".++++",
".++++",
".++++",
".++++",
".++++",
".++++",
".++++",
".++++",
".++++",
".++++",
".++++",
".++++",
".++++",
".++++"};
