/* XPM */
static char * frameABL_xpm[] = {
"5 5 3 1",
" 	c None",
".	c #404040",
"+	c #282828",
" .+++",
" .+++",
"  .++",
"   ..",
"     "};
