/* XPM */
static char * frameAB_xpm[] = {
"1 4 3 1",
" 	c None",
".	c #282828",
"+	c #404040",
".",
".",
".",
"+"};
