/* XPM */
static char * maximizeI_xpm[] = {
"26 58 20 1",
" 	c None",
".	c #303030",
"+	c #434343",
"@	c #666666",
"#	c #444444",
"$	c #3B3B3B",
"%	c #585858",
"&	c #636363",
"*	c #676767",
"=	c #646464",
"-	c #575757",
";	c #454545",
">	c #3D3D3D",
",	c #5E5E5E",
"'	c #696969",
")	c #5F5F5F",
"!	c #3C3C3C",
"~	c #464646",
"{	c #383838",
"]	c #626262",
"..........................",
"..........................",
"..........................",
"..........................",
"..........................",
"..........................",
"..........................",
"..........................",
"..........................",
"..........................",
"............++............",
"...........+@@+...........",
"..........+@#+@#..........",
".........+@#..+@#.........",
"........+@#....+@#........",
".......$@+......+@$.......",
"........$........$........",
"..........................",
"..........................",
"..........................",
"..........................",
"..........................",
"..........................",
"..........................",
"..........................",
"..........................",
"..........................",
"..........................",
"..........................",
"..........................",
"..........................",
"..........................",
"..........................",
"..........................",
".........#%&**=-;.........",
".......>,'''''''')!.......",
"......#@''''''''''@+......",
".....>@''''''''''''@!.....",
".....,'''''''''''''',.....",
"....#'''''''))'''''''~....",
"....%''''''){{)''''''%....",
"....&'''''){,){,'''''=....",
"....*''''){,''){,''''*....",
"....*'''){,''''){,'''*....",
"....&''={)''''''){='']....",
"....%'''=''''''''='''%....",
"....;''''''''''''''''#....",
".....,'''''''''''''').....",
".....!@''''''''''''@!.....",
"......+@''''''''''@+......",
".......!)'''''''',!.......",
".........~%]**]%#.........",
"..........................",
"..........................",
"..........................",
"..........................",
"..........................",
".........................."};
