/* XPM */
static char * maximizeO_xpm[] = {
"26 58 46 1",
" 	c None",
".	c #282828",
"+	c #7F7F7F",
"@	c #B3B3B3",
"#	c #CFCFCF",
"$	c #DADADA",
"%	c #CECECE",
"&	c #7E7E7E",
"*	c #636363",
"=	c #C5C5C5",
"-	c #DEDEDE",
";	c #626262",
">	c #7A7A7A",
",	c #D8D8D8",
"'	c #797979",
")	c #D7D7D7",
"!	c #616161",
"~	c #C3C3C3",
"{	c #C4C4C4",
"]	c #7D7D7D",
"^	c #B4B4B4",
"/	c #4F4F4F",
"(	c #B2B2B2",
"_	c #505050",
":	c #C6C6C6",
"<	c #D9D9D9",
"[	c #D2D2D2",
"}	c #B1B1B1",
"|	c #7C7C7C",
"1	c #5F5F5F",
"2	c #D6D6D6",
"3	c #414141",
"4	c #575757",
"5	c #676767",
"6	c #565656",
"7	c #383838",
"8	c #5D5D5D",
"9	c #696969",
"0	c #5E5E5E",
"a	c #373737",
"b	c #404040",
"c	c #666666",
"d	c #3F3F3F",
"e	c #424242",
"f	c #323232",
"g	c #646464",
"..........................",
"..........................",
"..........................",
"..........................",
"..........................",
".........+@#$$%@&.........",
".......*=--------=;.......",
"......>,----------,'......",
".....*,------------)!.....",
".....~--------------=.....",
"....+-------{{-------]....",
"....^------{//{------(....",
"....#-----=_{:_{-----%....",
"....<----=_{--:_{----<....",
"....<---=_{----:_{---<....",
"....#--[/{------{/[--%....",
"....@---[--------[---}....",
"....&----------------|....",
".....{--------------=.....",
".....12------------)!.....",
"......')----------)'......",
".......;{--------~!.......",
".........](%<<%(|.........",
"..........................",
"..........................",
"..........................",
"..........................",
"..........................",
"..........................",
"..........................",
"..........................",
"..........................",
"..........................",
"..........................",
".........34;55*63.........",
".......78999999990a.......",
"......bc9999999999cd......",
".....7c999999999999ca.....",
".....8999999999999998.....",
"....39999999009999999e....",
"....49999990ff09999996....",
"....;999990f80f899999*....",
"....599990f8990f899995....",
"....59990f899990f89995....",
"....;99gf09999990fg99;....",
"....4999g99999999g9994....",
"....39999999999999999b....",
".....8999999999999990.....",
".....ac999999999999ca.....",
"......dc9999999999cd......",
".......a0999999998a.......",
".........e6;55;6b.........",
"..........................",
"..........................",
"..........................",
"..........................",
"..........................",
".........................."};
