/* XPM */
static char * restoreI_xpm[] = {
"26 58 26 1",
" 	c None",
".	c #303030",
"+	c #313131",
"@	c #5B5B5B",
"#	c #323232",
"$	c #5C5C5C",
"%	c #5E5E5E",
"&	c #333333",
"*	c #444444",
"=	c #585858",
"-	c #636363",
";	c #676767",
">	c #646464",
",	c #575757",
"'	c #454545",
")	c #3D3D3D",
"!	c #696969",
"~	c #5F5F5F",
"{	c #3C3C3C",
"]	c #666666",
"^	c #434343",
"/	c #686868",
"(	c #494949",
"_	c #464646",
":	c #484848",
"<	c #626262",
"..........................",
"..........................",
"..........................",
"..........................",
"..........................",
"..........................",
"..........................",
"..........................",
"............++............",
"...........+@@+...........",
"..........+@@@@+..........",
".........#$%&#$%&.........",
"........#$%&..#$%&........",
".......+@@+....+@@+.......",
".......+@@+....+@@+.......",
"........#$%&..#$%&........",
".........#$%&#$%&.........",
"..........+@@@@+..........",
"...........+@@+...........",
"............++............",
"..........................",
"..........................",
"..........................",
"..........................",
"..........................",
"..........................",
"..........................",
"..........................",
"..........................",
"..........................",
"..........................",
"..........................",
"..........................",
"..........................",
".........*=-;;>,'.........",
".......)%!!!!!!!!~{.......",
"......*]!!!!!!!!!!]^......",
".....)]!!!!!//!!!!!]{.....",
".....%!!!!!/((/!!!!!%.....",
"....*!!!!!/((((/!!!!!_....",
"....=!!!!/:'//:'/!!!!=....",
"....-!!!/:'/!!/:'/!!!>....",
"....;!!/((/!!!!/((/!!;....",
"....;!!/((/!!!!/((/!!;....",
"....-!!!/:'/!!/:'/!!!<....",
"....=!!!!/:'//:'/!!!!=....",
"....'!!!!!/((((/!!!!!*....",
".....%!!!!!/((/!!!!!~.....",
".....{]!!!!!//!!!!!]{.....",
"......^]!!!!!!!!!!]^......",
".......{~!!!!!!!!%{.......",
"........._=<;;<=*.........",
"..........................",
"..........................",
"..........................",
"..........................",
"..........................",
".........................."};
