/* XPM */
static char * restoreA_xpm[] = {
"26 58 24 1",
" 	c None",
".	c #282828",
"+	c #363636",
"@	c #BDBDBD",
"#	c #333333",
"$	c #BCBCBC",
"%	c #C0C0C0",
"&	c #383838",
"*	c #414141",
"=	c #575757",
"-	c #626262",
";	c #676767",
">	c #636363",
",	c #565656",
"'	c #5D5D5D",
")	c #696969",
"!	c #5E5E5E",
"~	c #373737",
"{	c #404040",
"]	c #666666",
"^	c #3F3F3F",
"/	c #686868",
"(	c #454545",
"_	c #424242",
"..........................",
"..........................",
"..........................",
"..........................",
"..........................",
"..........................",
"..........................",
"..........................",
"............++............",
"...........+@@+...........",
"..........+@@@@+..........",
".........#$%&#$%&.........",
"........#$%&..#$%&........",
".......+@@+....+@@+.......",
".......+@@+....+@@+.......",
"........#$%&..#$%&........",
".........#$%&#$%&.........",
"..........+@@@@+..........",
"...........+@@+...........",
"............++............",
"..........................",
"..........................",
"..........................",
"..........................",
"..........................",
"..........................",
"..........................",
"..........................",
"..........................",
"..........................",
"..........................",
"..........................",
"..........................",
"..........................",
".........*=-;;>,*.........",
".......&'))))))))!~.......",
"......{]))))))))))]^......",
".....&])))))//)))))]~.....",
".....')))))/((/)))))'.....",
"....*)))))/((((/)))))_....",
"....=))))/(_//(_/)))),....",
"....-)))/(_/))/(_/)))>....",
"....;))/((/))))/((/));....",
"....;))/((/))))/((/));....",
"....-)))/(_/))/(_/)))-....",
"....=))))/(_//(_/))))=....",
"....*)))))/((((/))))){....",
".....')))))/((/)))))!.....",
".....~])))))//)))))]~.....",
"......^]))))))))))]^......",
".......~!))))))))'~.......",
"........._,-;;-,{.........",
"..........................",
"..........................",
"..........................",
"..........................",
"..........................",
".........................."};
