/* XPM */
static char * restoreO_xpm[] = {
"26 58 47 1",
" 	c None",
".	c #282828",
"+	c #7F7F7F",
"@	c #B3B3B3",
"#	c #CFCFCF",
"$	c #DADADA",
"%	c #CECECE",
"&	c #7E7E7E",
"*	c #636363",
"=	c #C5C5C5",
"-	c #DEDEDE",
";	c #626262",
">	c #7A7A7A",
",	c #D8D8D8",
"'	c #797979",
")	c #DCDCDC",
"!	c #D7D7D7",
"~	c #616161",
"{	c #C3C3C3",
"]	c #878787",
"^	c #7D7D7D",
"/	c #B4B4B4",
"(	c #888888",
"_	c #828282",
":	c #DBDBDB",
"<	c #B2B2B2",
"[	c #D9D9D9",
"}	c #B1B1B1",
"|	c #7C7C7C",
"1	c #C4C4C4",
"2	c #5F5F5F",
"3	c #D6D6D6",
"4	c #414141",
"5	c #575757",
"6	c #676767",
"7	c #565656",
"8	c #383838",
"9	c #5D5D5D",
"0	c #696969",
"a	c #5E5E5E",
"b	c #373737",
"c	c #404040",
"d	c #666666",
"e	c #3F3F3F",
"f	c #686868",
"g	c #454545",
"h	c #424242",
"..........................",
"..........................",
"..........................",
"..........................",
"..........................",
".........+@#$$%@&.........",
".......*=--------=;.......",
"......>,----------,'......",
".....*,-----))-----!~.....",
".....{-----)]])-----=.....",
"....+-----)]]]])-----^....",
"..../----)(_:)(_:----<....",
"....#---)(_:--)(_:---%....",
"....[--)]])----)]])--[....",
"....[--)]])----)]])--[....",
"....#---)(_:--)(_:---%....",
"....@----)(_:)(_:----}....",
"....&-----)]]]])-----|....",
".....1-----)]])-----=.....",
".....23-----))-----!~.....",
"......'!----------!'......",
".......;1--------{~.......",
".........^<%[[%<|.........",
"..........................",
"..........................",
"..........................",
"..........................",
"..........................",
"..........................",
"..........................",
"..........................",
"..........................",
"..........................",
"..........................",
".........45;66*74.........",
".......8900000000ab.......",
"......cd0000000000de......",
".....8d00000ff00000db.....",
".....900000fggf000009.....",
"....400000fggggf00000h....",
"....50000fghffghf00007....",
"....;000fghf00fghf000*....",
"....600fggf0000fggf006....",
"....600fggf0000fggf006....",
"....;000fghf00fghf000;....",
"....50000fghffghf00005....",
"....400000fggggf00000c....",
".....900000fggf00000a.....",
".....bd00000ff00000db.....",
"......ed0000000000de......",
".......ba000000009b.......",
".........h7;66;7c.........",
"..........................",
"..........................",
"..........................",
"..........................",
"..........................",
".........................."};
