/* XPM */
static char * rollupO_xpm[] = {
"26 58 45 1",
" 	c None",
".	c #282828",
"+	c #7F7F7F",
"@	c #B3B3B3",
"#	c #CFCFCF",
"$	c #DADADA",
"%	c #CECECE",
"&	c #7E7E7E",
"*	c #636363",
"=	c #C5C5C5",
"-	c #DEDEDE",
";	c #626262",
">	c #7A7A7A",
",	c #D8D8D8",
"'	c #797979",
")	c #D7D7D7",
"!	c #616161",
"~	c #C3C3C3",
"{	c #C4C4C4",
"]	c #7D7D7D",
"^	c #B4B4B4",
"/	c #4F4F4F",
"(	c #B2B2B2",
"_	c #C6C6C6",
":	c #D9D9D9",
"<	c #D2D2D2",
"[	c #B1B1B1",
"}	c #7C7C7C",
"|	c #5F5F5F",
"1	c #D6D6D6",
"2	c #414141",
"3	c #575757",
"4	c #676767",
"5	c #565656",
"6	c #383838",
"7	c #5D5D5D",
"8	c #696969",
"9	c #5E5E5E",
"0	c #373737",
"a	c #404040",
"b	c #666666",
"c	c #3F3F3F",
"d	c #424242",
"e	c #323232",
"f	c #646464",
"..........................",
"..........................",
"..........................",
"..........................",
"..........................",
".........+@#$$%@&.........",
".......*=--------=;.......",
"......>,----------,'......",
".....*,------------)!.....",
".....~--------------=.....",
"....+-------{{-------]....",
"....^------{//{------(....",
"....#-------{_-------%....",
"....:----------------:....",
"....:---========={---:....",
"....#--<//////////<--%....",
"....@---<<<<<<<<<<---[....",
"....&----------------}....",
".....{--------------=.....",
".....|1------------)!.....",
"......')----------)'......",
".......;{--------~!.......",
".........](%::%(}.........",
"..........................",
"..........................",
"..........................",
"..........................",
"..........................",
"..........................",
"..........................",
"..........................",
"..........................",
"..........................",
"..........................",
".........23;44*52.........",
".......678888888890.......",
"......ab8888888888bc......",
".....6b888888888888b0.....",
".....7888888888888887.....",
"....28888888998888888d....",
"....38888889ee98888885....",
"....;8888888798888888*....",
"....488888888888888884....",
"....488899999999978884....",
"....;88feeeeeeeeeef88;....",
"....3888ffffffffff8883....",
"....28888888888888888a....",
".....7888888888888889.....",
".....0b888888888888b0.....",
"......cb8888888888bc......",
".......098888888870.......",
".........d5;44;5a.........",
"..........................",
"..........................",
"..........................",
"..........................",
"..........................",
".........................."};
