/* XPM */
static char * rollupA_xpm[] = {
"26 58 23 1",
" 	c None",
".	c #282828",
"+	c #7C7C7C",
"@	c #D6D6D6",
"#	c #787878",
"$	c #797979",
"%	c #5E5E5E",
"&	c #414141",
"*	c #575757",
"=	c #626262",
"-	c #676767",
";	c #636363",
">	c #565656",
",	c #383838",
"'	c #5D5D5D",
")	c #696969",
"!	c #373737",
"~	c #404040",
"{	c #666666",
"]	c #3F3F3F",
"^	c #424242",
"/	c #323232",
"(	c #646464",
"..........................",
"..........................",
"..........................",
"..........................",
"..........................",
"..........................",
"..........................",
"..........................",
"..........................",
"..........................",
"............++............",
"...........+@@+...........",
"............+#............",
"..........................",
"........$$$$$$$$$+........",
".......%@@@@@@@@@@%.......",
"........%%%%%%%%%%........",
"..........................",
"..........................",
"..........................",
"..........................",
"..........................",
"..........................",
"..........................",
"..........................",
"..........................",
"..........................",
"..........................",
"..........................",
"..........................",
"..........................",
"..........................",
"..........................",
"..........................",
".........&*=--;>&.........",
".......,'))))))))%!.......",
"......~{)))))))))){]......",
".....,{)))))))))))){!.....",
".....'))))))))))))))'.....",
"....&)))))))%%)))))))^....",
"....*))))))%//%))))))>....",
"....=)))))))'%)))))));....",
"....-))))))))))))))))-....",
"....-)))%%%%%%%%%')))-....",
"....=))(//////////())=....",
"....*)))(((((((((()))*....",
"....&))))))))))))))))~....",
".....'))))))))))))))%.....",
".....!{)))))))))))){!.....",
"......]{)))))))))){]......",
".......!%))))))))'!.......",
".........^>=--=>~.........",
"..........................",
"..........................",
"..........................",
"..........................",
"..........................",
".........................."};
